<svg xmlns="http://www.w3.org/2000/svg" id="_图层_2" data-name="图层 2" viewBox="0 0 4226.81 911.89"><defs><style>.cls-1{fill:#4c4948}</style></defs><g id="_图层_8" data-name="图层 8"><path d="m560.94 336.71-82.5-58.69.49-42.2L311.72 22.65l17.16 123.47L132.33 6.59l89.14 166.66-3.88 5.54L0 66.39l122.92 161.12-94.68-3.69 141.49 67.48-74.99-16.05-66.81 50.57 78.44 44.29L20 457.59l99.11 45.4-66.44 100.77 106.86 32.11L39.99 808.8l-3.32 103.07h214.24l81.57-147.97-157.86-387.21 122.21 65.81-10.51-52.66-52.6-50.94 205.42 73.64 50.94 58.69 69.21-58.14 10.52-17.72-8.86-58.69ZM330.3 287.8l-9.97-54.26 67.55 54.26z" class="cls-1"/><path d="m356.34 764.17-77.95 147.72h120.88l44.29-153.83-137.72-286.99-90.14-51.11zM503.63 261.49l70.61 51.76-69.81-82.99zM782.19 648.41 611.35 437.96l5.8 38.47-9.76 16.45-34.93 29.35 76.45 321.97zM907.16 323.81l-354.65-99.35 354.65 426.99zM846.06 72.47l-283.44 87.5 283.44 73.57zM907 0H608.54L459.61 139.72 907 3.51zM536.21 686.97l-33.48-141.14-12.93 10.86-54.21-62.47-40.31-14.45-6.65 93.65 77.54 161.56zM584.47 872.84l-35.76-151.48-67.7 45.17 2.49 5.19-35.47 123.16h104.61zM1405.94 355.39l106.84-.1 74.59-92.22h-428.63l-60.98 90.71h180.68l-9.61 53.69-5.08 28.4-.38 2.09 136.48-49.49.53-2.9zM1208.64 743.86h125.74l61.49-333.77.16-.87-136.35 49.4zM1566.71 350.51l69.55-87.45h376.97l-57.96 93.11H1724.7s-42.33-.25-48.89 38.55c-6.55 38.81-38.3 226.28-38.3 226.28s-8.06 34.77 23.18 34.77h160.26l19.65-112.39h-93.74l15.12-77.11h205.62l-49.89 277.56h-344.72l-63-73.71 56.7-319.64ZM2211.35 394.22l-60.84 349.64h114.91l57.9-349.64z" class="cls-1"/><path d="M2397.13 394.22c-38.3 1.76-83.56 58.9-83.56 58.9l-14.91 89.99c11.7-70.62 133.75-59.94 133.75-59.94l33.26-91.22s-30.24.5-68.54 2.27M2779.28 393.09h-236.87l-69.84 67.69-38.72 222.5 56.64 61.7h230.32l75.33-65.2 37.36-225.6-54.24-61.09Zm-52.65 88.41-35.91 174.11c-1.15 5.59-6.57 9.65-12.88 9.65H2553.6c-8.26 0-14.46-6.81-12.84-14.12l38.55-174.01c1.22-5.52 6.59-9.49 12.83-9.49l121.59-.11c8.2 0 14.39 6.7 12.89 13.97ZM3185.98 390.45h-236.87l-69.84 67.69-38.72 222.5 56.64 61.7h230.32l75.33-65.2 37.36-225.6-54.24-61.09Zm-52.64 88.41-35.91 174.11c-1.15 5.59-6.57 9.65-12.88 9.65h-124.24c-8.26 0-14.46-6.81-12.84-14.12l38.55-174.01c1.22-5.52 6.59-9.49 12.83-9.49l121.59-.11c8.2 0 14.39 6.7 12.89 13.97ZM3294 394.22l-60.84 349.64h114.91l57.91-349.64zM3535.87 394.04l-60.84 349.63h114.91l-3.05-349.63zM3586.89 394.04l51.91 59.65-48.86 289.98z" class="cls-1"/><path d="m3398.81 437.47 50.99-43.24 86.06-.19-17.47 100.4s.96-23.36-31.3-24.49c-32.25-1.13-43.85 0-43.85 0s-52.73 17.54-56.3 39.12 11.86-71.6 11.86-71.6ZM3771.41 600.94h161.05l.08-.38h89.74l24.31-146.76-54.24-61.1h-236.87l-69.84 67.69-38.72 222.51 56.64 61.7 250.63-3.02 50.02-78.49-235.48.25c-8.26 0-7.73-3.03-6.11-10.33l8.8-52.07Zm33.8-133.67 121.59-.11c8.2 0 14.39 6.7 12.89 13.97l-10.51 50.95h-146.15l9.34-55.32c1.22-5.51 6.59-9.49 12.83-9.49ZM2157.67 355.17l15.41-92.1h-111.97l-15.98 92.1zM2038.75 391.96l-61.05 351.9h114.91l58.9-351.9zM4114.05 260.67l-82.6 483h114.91l80.45-483z" class="cls-1"/><path d="M4146.36 743.67h69.36l-54.9-86.79z" class="cls-1"/></g></svg>